<svg xmlns="http://www.w3.org/2000/svg" viewBox="0 0 1200 900" role="img" aria-label="Azul scenic placeholder" preserveAspectRatio="xMidYMid slice">
  <defs>
    <linearGradient id="sky" x1="0" y1="0" x2="0" y2="1">
      <stop offset="0%" stop-color="#7bd3ff"/>
      <stop offset="100%" stop-color="#3ca8df"/>
    </linearGradient>
    <linearGradient id="shore" x1="0" y1="0" x2="1" y2="1">
      <stop offset="0%" stop-color="#e0bb80"/>
      <stop offset="100%" stop-color="#bb7d46"/>
    </linearGradient>
  </defs>

  <rect width="1200" height="900" fill="url(#sky)"/>
  <rect y="470" width="1200" height="190" fill="#1ab8bf"/>
  <rect y="660" width="1200" height="240" fill="url(#shore)"/>

  <circle cx="1020" cy="122" r="62" fill="#ffe56f" opacity="0.95"/>

  <rect x="120" y="352" width="24" height="340" fill="#71462a"/>
  <rect x="78" y="312" width="128" height="36" fill="#2f9448"/>
  <rect x="200" y="324" width="130" height="36" fill="#40a757"/>
  <rect x="54" y="346" width="130" height="36" fill="#53ba66"/>
  <rect x="144" y="372" width="130" height="36" fill="#2c9145"/>

  <rect x="820" y="388" width="20" height="292" fill="#6f4528"/>
  <rect x="792" y="364" width="88" height="30" fill="#339a4f"/>
  <rect x="856" y="348" width="94" height="30" fill="#41aa5a"/>
  <rect x="768" y="388" width="98" height="30" fill="#4abb67"/>

  <rect x="500" y="540" width="212" height="104" fill="#8c5f37" opacity="0.95"/>
  <rect x="470" y="500" width="270" height="52" fill="#b7864f"/>
  <rect x="560" y="582" width="42" height="62" fill="#6f4528"/>

  <rect x="0" y="516" width="1200" height="10" fill="#ffffff" opacity="0.42"/>
  <rect x="0" y="584" width="1200" height="8" fill="#ffffff" opacity="0.32"/>

  <text x="58" y="842" fill="#fff9ef" font-size="42" font-family="'DM Mono', monospace" letter-spacing="2">Azul</text>
</svg>
