<svg xmlns="http://www.w3.org/2000/svg" viewBox="0 0 1600 900" role="img" aria-labelledby="title desc" shape-rendering="crispEdges">
  <title id="title">Pixel art Jamaican beach scene</title>
  <desc id="desc">A bright pixel-style beach with palms, hut, boat, and a fluffy dog.</desc>

  <rect width="1600" height="900" fill="#6cc8ff"/>
  <rect y="470" width="1600" height="210" fill="#28b9b5"/>
  <rect y="680" width="1600" height="220" fill="#efd58a"/>

  <rect x="0" y="430" width="1600" height="20" fill="#88e8ff" opacity="0.7"/>
  <rect x="0" y="520" width="1600" height="16" fill="#1ea8a4" opacity="0.6"/>

  <rect x="1320" y="560" width="180" height="8" fill="#ffffff" opacity="0.5"/>
  <rect x="420" y="610" width="220" height="9" fill="#ffffff" opacity="0.45"/>

  <rect x="1125" y="360" width="26" height="320" fill="#6a3f24"/>
  <rect x="980" y="380" width="24" height="300" fill="#6a3f24"/>
  <rect x="1230" y="390" width="24" height="290" fill="#6a3f24"/>

  <rect x="1030" y="315" width="58" height="26" fill="#2c8f3a"/>
  <rect x="1078" y="290" width="66" height="26" fill="#2f9d44"/>
  <rect x="1134" y="320" width="72" height="26" fill="#35a94a"/>
  <rect x="1200" y="350" width="76" height="26" fill="#3bb455"/>

  <rect x="910" y="340" width="54" height="24" fill="#2f9d44"/>
  <rect x="950" y="314" width="62" height="24" fill="#38a94f"/>
  <rect x="998" y="335" width="72" height="24" fill="#42b65a"/>

  <rect x="1178" y="340" width="56" height="24" fill="#2f9d44"/>
  <rect x="1218" y="314" width="62" height="24" fill="#38a94f"/>
  <rect x="1268" y="334" width="72" height="24" fill="#42b65a"/>

  <rect x="170" y="500" width="250" height="170" fill="#916339"/>
  <rect x="140" y="450" width="310" height="70" fill="#c89a5b"/>
  <rect x="200" y="560" width="58" height="110" fill="#6e4628"/>
  <rect x="320" y="560" width="58" height="110" fill="#6e4628"/>

  <rect x="332" y="368" width="9" height="125" fill="#2f2f2f"/>
  <rect x="341" y="368" width="55" height="42" fill="#000000"/>
  <rect x="341" y="368" width="55" height="14" fill="#28b65c"/>
  <rect x="341" y="382" width="55" height="14" fill="#f2ce2b"/>
  <rect x="341" y="396" width="55" height="14" fill="#111111"/>

  <rect x="620" y="618" width="210" height="16" fill="#ffffff" opacity="0.9"/>
  <rect x="830" y="604" width="18" height="50" fill="#ffffff"/>
  <rect x="610" y="618" width="10" height="16" fill="#ffffff"/>

  <rect x="1120" y="730" width="116" height="58" fill="#faf8f4"/>
  <rect x="1082" y="744" width="38" height="36" fill="#faf8f4"/>
  <rect x="1232" y="742" width="34" height="34" fill="#faf8f4"/>
  <rect x="1148" y="712" width="48" height="34" fill="#faf8f4"/>
  <rect x="1110" y="750" width="22" height="22" fill="#f3e9d8"/>
  <rect x="1262" y="756" width="14" height="14" fill="#f3e9d8"/>
  <rect x="1238" y="764" width="8" height="8" fill="#222222"/>
  <rect x="1228" y="786" width="18" height="10" fill="#f2a8a8"/>

  <rect x="0" y="840" width="1600" height="60" fill="#e5c473" opacity="0.65"/>
</svg>
